<svg width="200" height="181" viewBox="0 0 200 181" fill="none" xmlns="http://www.w3.org/2000/svg">
<path d="M173.777 49.3357C173.811 48.3012 173.829 47.3558 173.829 46.6067C173.829 34.1568 169.173 22.4561 160.734 13.6449C152.279 4.83368 141.05 0 129.103 0C119.843 0 110.737 3.28191 102.777 9.489C97.3342 13.7341 92.7641 19.1385 89.4777 25.1316C85.8661 23.1696 81.8608 22.1529 77.7186 22.1529C71.0773 22.1529 64.6928 25.3635 59.7461 31.196C56.4426 35.0843 54.0976 39.811 52.9508 44.7339C47.3536 47.0348 42.3555 50.9945 38.7439 56.06C34.499 61.9639 32.2567 68.9915 32.2567 76.3758C32.2567 95.1219 46.8915 110.372 64.8811 110.372V110.283H170.73V110.336C186.871 110.336 200 96.6559 200 79.8361C200 64.14 188.429 51.0302 173.777 49.3357ZM171.894 103.238L62.8784 103.22C49.5617 102.149 39.0349 90.5201 39.0349 76.358C39.0349 64.6751 46.1041 54.3121 56.6993 50.6199C56.7335 50.6021 56.7678 50.5842 56.802 50.5664C57.8461 50.2632 58.6677 49.3535 58.856 48.1763C60.3623 38.7408 68.2188 29.1983 77.7014 29.1983C81.5869 29.1983 85.3012 30.429 88.4678 32.7478C88.7759 33.051 89.1525 33.3007 89.5975 33.4612C91.2578 34.1033 93.1064 33.3007 93.8424 31.6241C100.278 17.1944 114.639 7.02757 129.103 7.02757C150.036 7.02757 167.05 24.7749 167.05 46.571C167.05 48.0515 166.982 50.3702 166.845 52.4036C166.725 54.2229 167.94 55.8282 169.669 56.1314C169.977 56.1849 170.268 56.1849 170.559 56.1671V56.1849C182.969 56.1849 193.222 66.8689 193.222 79.8004C193.222 92.3573 183.756 102.613 171.894 103.238Z" fill="#E9E9E9"/>
<circle cx="80" cy="101" r="80" fill="#FFFABE"/>
<ellipse cx="126" cy="79" rx="13.2" ry="14" fill="#EEEAB5"/>
<ellipse cx="112" cy="151.8" rx="14.4" ry="8.4" fill="#EEEAB5"/>
<ellipse cx="45.6733" cy="130.32" rx="13.2" ry="21.6" transform="rotate(90.318 45.6733 130.32)" fill="#EEEAB5"/>
<ellipse cx="58.0004" cy="119.537" rx="11.2684" ry="12.3376" transform="rotate(90.318 58.0004 119.537)" fill="#EEEAB5"/>
<ellipse cx="64.7074" cy="69.6966" rx="9.42205" ry="13.4558" transform="rotate(90.318 64.7074 69.6966)" fill="#EEEAB5"/>
</svg>
