<svg width="200" height="135" viewBox="0 0 200 135" fill="none" xmlns="http://www.w3.org/2000/svg">
<path d="M168.735 60.2695C168.776 59.0058 168.796 57.8509 168.796 56.9358C168.796 41.7267 163.245 27.4329 153.184 16.6689C143.102 5.90493 129.714 0 115.469 0C104.429 0 93.5714 4.00925 84.0816 11.592C77.5918 16.7779 72.1429 23.38 68.2245 30.7013C63.9184 28.3045 59.1429 27.0625 54.2041 27.0625C46.2857 27.0625 38.6735 30.9846 32.7755 38.1097C28.8367 42.8598 26.0408 48.634 24.6735 54.6479C18 57.4587 12.0408 62.296 7.73469 68.4842C2.67347 75.6964 0 84.2815 0 93.3023C0 116.203 17.449 134.833 38.898 134.833V134.724H165.102V134.789C184.347 134.789 200 118.077 200 97.5295C200 78.3548 186.204 62.3395 168.735 60.2695ZM166.49 126.117L36.5102 126.095C20.6327 124.788 8.08163 110.581 8.08163 93.2805C8.08163 79.0084 16.5102 66.3488 29.1429 61.8384C29.1837 61.8166 29.2245 61.7948 29.2653 61.773C30.5102 61.4026 31.4898 60.2913 31.7143 58.8532C33.5102 47.3266 42.8776 35.6693 54.1837 35.6693C58.8163 35.6693 63.2449 37.1728 67.0204 40.0054C67.3878 40.3758 67.8367 40.6809 68.3673 40.877C70.3469 41.6614 72.551 40.6809 73.4286 38.6326C81.102 21.005 98.2245 8.58503 115.469 8.58503C140.429 8.58503 160.714 30.2655 160.714 56.8922C160.714 58.7007 160.633 61.5333 160.469 64.0173C160.327 66.2398 161.776 68.2009 163.837 68.5713C164.204 68.6367 164.551 68.6367 164.898 68.6149V68.6367C179.694 68.6367 191.918 81.6885 191.918 97.4859C191.918 112.826 180.633 125.355 166.49 126.117Z" fill="#E9E9E9"/>
</svg>
