<svg width="200" height="175" viewBox="0 0 200 175" fill="none" xmlns="http://www.w3.org/2000/svg">
<path d="M168.735 59.2538C168.776 58.0113 168.796 56.8759 168.796 55.9762C168.796 41.0235 163.245 26.9705 153.184 16.388C143.102 5.80541 129.714 0 115.469 0C104.429 0 93.5714 3.94168 84.0816 11.3966C77.5918 16.4951 72.1429 22.986 68.2245 30.1839C63.9184 27.8274 59.1429 26.6064 54.2041 26.6064C46.2857 26.6064 38.6735 30.4623 32.7755 37.4674C28.8367 42.1374 26.0408 47.8143 24.6735 53.7268C18 56.4903 12.0408 61.246 7.73469 67.3299C2.67347 74.4207 0 82.861 0 91.7298C0 114.245 17.449 132.561 38.898 132.561V132.453H165.102V132.518C184.347 132.518 200 116.087 200 95.8857C200 77.0342 186.204 61.2889 168.735 59.2538ZM166.49 123.992L36.5102 123.97C20.6327 122.685 8.08163 108.718 8.08163 91.7084C8.08163 77.6768 16.5102 65.2306 29.1429 60.7962C29.1837 60.7747 29.2245 60.7533 29.2653 60.7319C30.5102 60.3677 31.4898 59.2752 31.7143 57.8613C33.5102 46.529 42.8776 35.0681 54.1837 35.0681C58.8163 35.0681 63.2449 36.5463 67.0204 39.3311C67.3878 39.6953 67.8367 39.9952 68.3673 40.188C70.3469 40.9592 72.551 39.9952 73.4286 37.9815C81.102 20.651 98.2245 8.44034 115.469 8.44034C140.429 8.44034 160.714 29.7554 160.714 55.9333C160.714 57.7114 160.633 60.4963 160.469 62.9384C160.327 65.1234 161.776 67.0514 163.837 67.4156C164.204 67.4799 164.551 67.4799 164.898 67.4585V67.4799C179.694 67.4799 191.918 80.3118 191.918 95.8429C191.918 110.924 180.633 123.242 166.49 123.992Z" fill="#E9E9E9"/>
<rect x="121.148" y="90.4494" width="9.61492" height="62.9213" rx="4.80746" fill="#0023DA"/>
<rect x="147.108" y="90.4494" width="9.61492" height="84.5506" rx="4.80746" fill="#0023DA"/>
</svg>
