<svg width="200" height="175" viewBox="0 0 200 175" fill="none" xmlns="http://www.w3.org/2000/svg">
<path d="M168.735 53.2685C168.776 52.1516 168.796 51.1309 168.796 50.322C168.796 36.8797 163.245 24.2462 153.184 14.7326C143.102 5.21901 129.714 0 115.469 0C104.429 0 93.5714 3.54353 84.0816 10.2454C77.5918 14.8289 72.1429 20.6642 68.2245 27.135C63.9184 25.0166 59.1429 23.9188 54.2041 23.9188C46.2857 23.9188 38.6735 27.3853 32.7755 33.6828C28.8367 37.8811 26.0408 42.9846 24.6735 48.2999C18 50.7842 12.0408 55.0596 7.73469 60.5289C2.67347 66.9034 0 74.4912 0 82.4642C0 102.705 17.449 119.171 38.898 119.171V119.074H165.102V119.132C184.347 119.132 200 104.361 200 86.2003C200 69.253 186.204 55.0981 168.735 53.2685ZM166.49 111.467L36.5102 111.448C20.6327 110.292 8.08163 97.736 8.08163 82.4449C8.08163 69.8307 16.5102 58.6416 29.1429 54.6551C29.1837 54.6359 29.2245 54.6166 29.2653 54.5974C30.5102 54.27 31.4898 53.2878 31.7143 52.0168C33.5102 41.8291 42.8776 31.5259 54.1837 31.5259C58.8163 31.5259 63.2449 32.8547 67.0204 35.3583C67.3878 35.6857 67.8367 35.9553 68.3673 36.1286C70.3469 36.8219 72.551 35.9553 73.4286 34.145C81.102 18.565 98.2245 7.58778 115.469 7.58778C140.429 7.58778 160.714 26.7498 160.714 50.2835C160.714 51.8819 160.633 54.3855 160.469 56.581C160.327 58.5453 161.776 60.2786 163.837 60.606C164.204 60.6637 164.551 60.6637 164.898 60.6445V60.6637C179.694 60.6637 191.918 72.1995 191.918 86.1618C191.918 99.7196 180.633 110.793 166.49 111.467Z" fill="#E9E9E9"/>
<rect x="90.3899" y="80.4293" width="9.61492" height="44.1919" rx="4.80746" fill="#0023DA"/>
<rect x="116.35" y="80.4293" width="9.61492" height="56.5657" rx="4.80746" fill="#0023DA"/>
<rect x="142.31" y="80.4293" width="9.61492" height="76.0101" rx="4.80746" fill="#0023DA"/>
<rect x="168.271" y="80.4293" width="9.61492" height="94.5707" rx="4.80746" fill="#0023DA"/>
</svg>
