<svg width="200" height="177" viewBox="0 0 200 177" fill="none" xmlns="http://www.w3.org/2000/svg">
<path d="M168.735 50.7354C168.776 49.6715 168.796 48.6994 168.796 47.929C168.796 35.1259 163.245 23.0932 153.184 14.032C143.102 4.97082 129.714 0 115.469 0C104.429 0 93.5714 3.37502 84.0816 9.75821C77.5918 14.1237 72.1429 19.6815 68.2245 25.8446C63.9184 23.8269 59.1429 22.7814 54.2041 22.7814C46.2857 22.7814 38.6735 26.083 32.7755 32.081C28.8367 36.0797 26.0408 40.9405 24.6735 46.003C18 48.3692 12.0408 52.4412 7.73469 57.6505C2.67347 63.7219 0 70.9488 0 78.5426C0 97.8206 17.449 113.503 38.898 113.503V113.412H165.102V113.467C184.347 113.467 200 99.3981 200 82.1011C200 65.9597 186.204 52.4779 168.735 50.7354ZM166.49 106.166L36.5102 106.148C20.6327 105.048 8.08163 93.0882 8.08163 78.5243C8.08163 66.5099 16.5102 55.8529 29.1429 52.056C29.1837 52.0377 29.2245 52.0194 29.2653 52.001C30.5102 51.6892 31.4898 50.7537 31.7143 49.5431C33.5102 39.8399 42.8776 30.0267 54.1837 30.0267C58.8163 30.0267 63.2449 31.2923 67.0204 33.6768C67.3878 33.9887 67.8367 34.2455 68.3673 34.4105C70.3469 35.0709 72.551 34.2455 73.4286 32.5213C81.102 17.6822 98.2245 7.22695 115.469 7.22695C140.429 7.22695 160.714 25.4777 160.714 47.8923C160.714 49.4147 160.633 51.7992 160.469 53.8903C160.327 55.7612 161.776 57.4121 163.837 57.7239C164.204 57.7789 164.551 57.7789 164.898 57.7606V57.7789C179.694 57.7789 191.918 68.7661 191.918 82.0644C191.918 94.9775 180.633 105.524 166.49 106.166Z" fill="#E9E9E9"/>
<path d="M136.231 76L119.615 125.571H138.077L119 177L169.462 116.276H151.615L175 76H136.231Z" fill="#F7CF52"/>
</svg>
