<svg width="200" height="200" viewBox="0 0 200 200" fill="none" xmlns="http://www.w3.org/2000/svg">
<path d="M133.19 43.3197C133.19 39.5097 130.101 36.4209 126.291 36.4209H6.89877C3.08881 36.4209 0 39.5097 0 43.3197C0 47.1297 3.08881 50.2185 6.89877 50.2185H126.291C130.101 50.2185 133.19 47.1297 133.19 43.3197Z" fill="#C1C1C1"/>
<path d="M193.101 64.7611H53.9319C50.1219 64.7611 47.0331 67.8499 47.0331 71.6599C47.0331 75.4698 50.1219 78.5586 53.9319 78.5586H193.101C196.911 78.5586 200 75.4698 200 71.6599C200 67.8499 196.911 64.7611 193.101 64.7611Z" fill="#C1C1C1"/>
<path d="M160.539 106.898C164.349 106.898 167.438 103.809 167.438 99.9991C167.438 96.1891 164.349 93.1003 160.539 93.1003H20.6467C16.8367 93.1003 13.7479 96.1891 13.7479 99.9991C13.7479 103.809 16.8367 106.898 20.6467 106.898H160.539Z" fill="#C1C1C1"/>
<path d="M183.453 121.44H43.8017C39.9917 121.44 36.9029 124.529 36.9029 128.339C36.9029 132.149 39.9917 135.238 43.8017 135.238H183.453C187.263 135.238 190.352 132.149 190.352 128.339C190.352 124.529 187.263 121.44 183.453 121.44Z" fill="#C1C1C1"/>
<path d="M115.678 149.782H23.0584C19.2485 149.782 16.1597 152.87 16.1597 156.68C16.1597 160.49 19.2485 163.579 23.0584 163.579H115.677C119.487 163.579 122.576 160.49 122.576 156.68C122.576 152.87 119.488 149.782 115.678 149.782Z" fill="#C1C1C1"/>
</svg>
