<svg width="30" height="30" viewBox="0 0 30 30" fill="none" xmlns="http://www.w3.org/2000/svg">
<path d="M14.9992 0C6.72841 0 0 6.72841 0 14.9992C0 23.2705 6.72841 30 14.9992 30C23.2705 30 30 23.2705 30 14.9992C30 6.72841 23.2705 0 14.9992 0ZM14.9992 28.2252C7.70717 28.2252 1.77376 22.2923 1.77376 14.9992C1.77376 7.70717 7.70707 1.77376 14.9992 1.77376C22.2923 1.77376 28.2252 7.70707 28.2252 14.9992C28.2252 22.2923 22.2923 28.2252 14.9992 28.2252Z" fill="#1D33FF"/>
<path d="M14.7784 5.9796L10.5037 22.7606C10.4761 22.8699 10.5307 22.9819 10.6348 23.027C10.7377 23.0716 10.8582 23.036 10.9198 22.9399L15.0523 16.4976L19.0808 22.9389C19.1238 23.0074 19.1992 23.0461 19.2751 23.0461C19.3049 23.0461 19.3345 23.0402 19.3648 23.0286C19.4693 22.9836 19.5245 22.87 19.4975 22.7606L15.2227 5.9796C15.1707 5.77633 14.8288 5.77633 14.7784 5.9796ZM15.2482 15.9478C15.2062 15.8821 15.1341 15.8417 15.0555 15.8417H15.055C14.9765 15.8417 14.9032 15.8804 14.8613 15.9462L11.2984 21.5006L14.9994 6.96577L18.6881 21.4486L15.2482 15.9478Z" fill="#1D33FF"/>
<path d="M19.2745 23.1183C19.1716 23.1183 19.0723 23.0641 19.0186 22.9777L15.0512 16.6325L10.9803 22.9787C10.9028 23.1003 10.7398 23.1507 10.6066 23.0945C10.4697 23.0345 10.3975 22.8864 10.4347 22.7431L14.7089 5.96161C14.7396 5.83905 14.857 5.75513 15.0003 5.75513C15.1431 5.75513 15.2614 5.83788 15.2927 5.96161L19.5659 22.7431C19.6031 22.8874 19.5304 23.036 19.3929 23.0945C19.3535 23.1104 19.3148 23.1183 19.2745 23.1183ZM15.0517 16.3633L15.1133 16.4604L19.1412 22.9012C19.1799 22.9643 19.2628 22.9914 19.3371 22.9612C19.4071 22.9309 19.4459 22.8534 19.4267 22.7786L15.1526 5.99713C15.1341 5.92443 15.0592 5.89838 14.9998 5.89838C14.9404 5.89838 14.866 5.92443 14.8475 5.99713L10.5738 22.7786C10.5536 22.8534 10.5919 22.9309 10.6625 22.9612C10.7304 22.9882 10.8174 22.9644 10.8578 22.9012L15.0517 16.3633ZM11.1188 21.9129L14.9992 6.67328L18.8737 21.8784L15.1871 15.9865C15.1281 15.892 14.9784 15.8968 14.9222 15.9849L11.1188 21.9129Z" fill="#1D33FF"/>
</svg>
